<svg width="166" height="12" viewBox="0 0 166 12" fill="none" xmlns="http://www.w3.org/2000/svg">
<path d="M1.34766 9.19164H6.16573V10.2857H0V0.139373H1.34766V9.19164Z" fill="#2C6C50"/>
<path d="M13.4487 7.63763H9.18925L8.23262 10.2857H6.85004L10.7324 0.139373H11.9055L15.7949 10.2857H14.4193L13.4487 7.63763ZM9.59424 6.53659H13.0507L11.319 1.79094L9.59424 6.53659Z" fill="#2C6C50"/>
<path d="M23.2804 1.24042H20.0125V10.2857H18.6788V1.24042H15.4178V0.139373H23.2804V1.24042Z" fill="#2C6C50"/>
<path d="M32.4137 5.54007C32.4137 6.53426 32.2462 7.40302 31.911 8.14634C31.5758 8.88502 31.101 9.44948 30.4865 9.83972C29.872 10.23 29.1551 10.4251 28.3358 10.4251C27.5352 10.4251 26.8252 10.23 26.2061 9.83972C25.587 9.44483 25.1052 8.88502 24.7607 8.16028C24.4209 7.43089 24.2463 6.58769 24.237 5.63066V4.89895C24.237 3.92334 24.4069 3.06156 24.7467 2.31359C25.0866 1.56562 25.566 0.994193 26.1852 0.599303C26.809 0.199768 27.5212 0 28.3219 0C29.1365 0 29.8534 0.197445 30.4726 0.592335C31.0963 0.982578 31.5758 1.55168 31.911 2.29965C32.2462 3.04297 32.4137 3.90941 32.4137 4.89895V5.54007ZM31.08 4.88502C31.08 3.68177 30.838 2.75958 30.3538 2.11847C29.8697 1.47271 29.1924 1.14983 28.3219 1.14983C27.4746 1.14983 26.8066 1.47271 26.3178 2.11847C25.8337 2.75958 25.5847 3.65157 25.5707 4.79443V5.54007C25.5707 6.70616 25.8151 7.62369 26.3039 8.29268C26.7973 8.95703 27.4746 9.2892 28.3358 9.2892C29.2017 9.2892 29.872 8.97561 30.3469 8.34843C30.8217 7.71661 31.0661 6.81301 31.08 5.63763V4.88502Z" fill="#2C6C50"/>
<path d="M41.582 0.139373V7.03833C41.5774 7.99535 41.2748 8.77816 40.6743 9.38676C40.0784 9.99535 39.2684 10.3368 38.2443 10.4111L37.8882 10.4251C36.7756 10.4251 35.8888 10.1254 35.2278 9.52613C34.5667 8.92683 34.2316 8.10221 34.2223 7.05226V0.139373H35.549V7.01045C35.549 7.74448 35.7515 8.31591 36.1565 8.72474C36.5615 9.12892 37.1387 9.33101 37.8882 9.33101C38.647 9.33101 39.2265 9.12892 39.6269 8.72474C40.0319 8.32056 40.2344 7.75145 40.2344 7.01742V0.139373H41.582Z" fill="#2C6C50"/>
<path d="M47.4266 6.18118H45.0385V10.2857H43.6908V0.139373H47.0565C48.2017 0.139373 49.0815 0.399535 49.696 0.919861C50.3151 1.44019 50.6247 2.19744 50.6247 3.19164C50.6247 3.82346 50.4524 4.37398 50.1079 4.84321C49.7681 5.31243 49.2933 5.66318 48.6835 5.89547L51.0715 10.2021V10.2857H49.6331L47.4266 6.18118ZM45.0385 5.08711H47.0984C47.7641 5.08711 48.2924 4.91522 48.6835 4.57143C49.0792 4.22764 49.277 3.76771 49.277 3.19164C49.277 2.56446 49.0885 2.08362 48.7114 1.74913C48.339 1.41463 47.799 1.24506 47.0914 1.24042H45.0385V5.08711Z" fill="#2C6C50"/>
<path d="M60.3306 5.54007C60.3306 6.53426 60.163 7.40302 59.8279 8.14634C59.4927 8.88502 59.0179 9.44948 58.4034 9.83972C57.7889 10.23 57.072 10.4251 56.2527 10.4251C55.452 10.4251 54.7421 10.23 54.123 9.83972C53.5039 9.44483 53.0221 8.88502 52.6776 8.16028C52.3377 7.43089 52.1632 6.58769 52.1539 5.63066V4.89895C52.1539 3.92334 52.3238 3.06156 52.6636 2.31359C53.0034 1.56562 53.4829 0.994193 54.102 0.599303C54.7258 0.199768 55.4381 0 56.2388 0C57.0534 0 57.7703 0.197445 58.3894 0.592335C59.0132 0.982578 59.4927 1.55168 59.8279 2.29965C60.163 3.04297 60.3306 3.90941 60.3306 4.89895V5.54007ZM58.9969 4.88502C58.9969 3.68177 58.7549 2.75958 58.2707 2.11847C57.7866 1.47271 57.1093 1.14983 56.2388 1.14983C55.3915 1.14983 54.7235 1.47271 54.2347 2.11847C53.7506 2.75958 53.5015 3.65157 53.4876 4.79443V5.54007C53.4876 6.70616 53.732 7.62369 54.2208 8.29268C54.7142 8.95703 55.3915 9.2892 56.2527 9.2892C57.1186 9.2892 57.7889 8.97561 58.2637 8.34843C58.7386 7.71661 58.983 6.81301 58.9969 5.63763V4.88502Z" fill="#2C6C50"/>
<path d="M65.3372 5.76307C64.1874 5.43322 63.3495 5.02904 62.8235 4.55052C62.3021 4.06736 62.0414 3.47271 62.0414 2.76655C62.0414 1.96748 62.3603 1.30778 62.998 0.787456C63.6404 0.262486 64.4737 0 65.4978 0C66.1961 0 66.8176 0.134727 67.3622 0.404181C67.9115 0.673635 68.3351 1.0453 68.6331 1.51916C68.9357 1.99303 69.0869 2.51103 69.0869 3.07317H67.7393C67.7393 2.45993 67.5438 1.97909 67.1527 1.63066C66.7617 1.27758 66.2101 1.10105 65.4978 1.10105C64.8368 1.10105 64.3201 1.24739 63.9477 1.54007C63.5799 1.82811 63.396 2.22997 63.396 2.74564C63.396 3.15912 63.5706 3.50987 63.9197 3.79791C64.2735 4.0813 64.8717 4.34146 65.7143 4.5784C66.5615 4.81533 67.2226 5.07782 67.6974 5.36585C68.1769 5.64924 68.5307 5.98142 68.7588 6.36237C68.9915 6.74332 69.1079 7.19164 69.1079 7.70732C69.1079 8.52962 68.7867 9.18931 68.1443 9.68641C67.5019 10.1789 66.643 10.4251 65.5677 10.4251C64.8694 10.4251 64.2177 10.2927 63.6125 10.0279C63.0073 9.75842 62.5395 9.39141 62.209 8.92683C61.8831 8.46225 61.7202 7.93496 61.7202 7.34495H63.0678C63.0678 7.95819 63.2936 8.44367 63.7452 8.80139C64.2014 9.15447 64.8089 9.33101 65.5677 9.33101C66.2752 9.33101 66.8176 9.18699 67.1946 8.89895C67.5717 8.61092 67.7602 8.21835 67.7602 7.72125C67.7602 7.22416 67.5857 6.84088 67.2365 6.57143C66.8874 6.29733 66.2543 6.02787 65.3372 5.76307Z" fill="#2C6C50"/>
<path d="M82.1446 5.54007C82.1446 6.52033 81.9887 7.36585 81.6768 8.07666C81.3649 8.78281 80.9273 9.33566 80.364 9.73519L82.1795 11.1568L81.2648 12L79.1211 10.2997C78.7859 10.3833 78.4321 10.4251 78.0597 10.4251C77.259 10.4251 76.5491 10.23 75.93 9.83972C75.3109 9.44483 74.8291 8.88502 74.4846 8.16028C74.1448 7.43089 73.9702 6.58769 73.9609 5.63066V4.89895C73.9609 3.92334 74.1308 3.06156 74.4706 2.31359C74.8104 1.56562 75.2899 0.994193 75.9091 0.599303C76.5328 0.199768 77.2451 0 78.0458 0C78.8651 0 79.5843 0.197445 80.2034 0.592335C80.8272 0.987224 81.3067 1.55633 81.6419 2.29965C81.977 3.03833 82.1446 3.90244 82.1446 4.89199V5.54007ZM80.8039 4.88502C80.8039 3.69106 80.5642 2.7712 80.0847 2.12544C79.6099 1.47503 78.9302 1.14983 78.0458 1.14983C77.2032 1.14983 76.5375 1.47271 76.0487 2.11847C75.5646 2.75958 75.3155 3.65157 75.3016 4.79443V5.54007C75.3016 6.70151 75.5436 7.61672 76.0278 8.28571C76.5165 8.9547 77.1939 9.2892 78.0597 9.2892C78.9256 9.2892 79.5959 8.97561 80.0707 8.34843C80.5456 7.71661 80.79 6.81301 80.8039 5.63763V4.88502Z" fill="#2C6C50"/>
<path d="M91.3688 0.139373V7.03833C91.3641 7.99535 91.0615 8.77816 90.461 9.38676C89.8652 9.99535 89.0552 10.3368 88.031 10.4111L87.6749 10.4251C86.5623 10.4251 85.6755 10.1254 85.0145 9.52613C84.3535 8.92683 84.0183 8.10221 84.009 7.05226V0.139373H85.3357V7.01045C85.3357 7.74448 85.5382 8.31591 85.9432 8.72474C86.3482 9.12892 86.9254 9.33101 87.6749 9.33101C88.4337 9.33101 89.0133 9.12892 89.4136 8.72474C89.8186 8.32056 90.0211 7.75145 90.0211 7.01742V0.139373H91.3688Z" fill="#2C6C50"/>
<path d="M98.945 7.63763H94.6856L93.7289 10.2857H92.3464L96.2287 0.139373H97.4018L101.291 10.2857H99.9156L98.945 7.63763ZM95.0906 6.53659H98.547L96.8153 1.79094L95.0906 6.53659Z" fill="#2C6C50"/>
<path d="M106.389 6.18118H104.001V10.2857H102.653V0.139373H106.019C107.164 0.139373 108.043 0.399535 108.658 0.919861C109.277 1.44019 109.587 2.19744 109.587 3.19164C109.587 3.82346 109.414 4.37398 109.07 4.84321C108.73 5.31243 108.255 5.66318 107.645 5.89547L110.034 10.2021V10.2857H108.595L106.389 6.18118ZM104.001 5.08711H106.06C106.726 5.08711 107.254 4.91522 107.645 4.57143C108.041 4.22764 108.239 3.76771 108.239 3.19164C108.239 2.56446 108.05 2.08362 107.673 1.74913C107.301 1.41463 106.761 1.24506 106.053 1.24042H104.001V5.08711Z" fill="#2C6C50"/>
<path d="M115.201 6.18118H112.813V10.2857H111.465V0.139373H114.831C115.976 0.139373 116.856 0.399535 117.47 0.919861C118.089 1.44019 118.399 2.19744 118.399 3.19164C118.399 3.82346 118.227 4.37398 117.882 4.84321C117.542 5.31243 117.067 5.66318 116.458 5.89547L118.846 10.2021V10.2857H117.407L115.201 6.18118ZM112.813 5.08711H114.873C115.538 5.08711 116.067 4.91522 116.458 4.57143C116.853 4.22764 117.051 3.76771 117.051 3.19164C117.051 2.56446 116.863 2.08362 116.486 1.74913C116.113 1.41463 115.573 1.24506 114.866 1.24042H112.813V5.08711Z" fill="#2C6C50"/>
<path d="M121.723 10.2857H120.382V0.139373H121.723V10.2857Z" fill="#2C6C50"/>
<path d="M129.927 5.59582H125.521V9.19164H130.64V10.2857H124.181V0.139373H130.57V1.24042H125.521V4.50174H129.927V5.59582Z" fill="#2C6C50"/>
<path d="M135.304 5.76307C134.154 5.43322 133.316 5.02904 132.79 4.55052C132.269 4.06736 132.008 3.47271 132.008 2.76655C132.008 1.96748 132.327 1.30778 132.965 0.787456C133.607 0.262486 134.44 0 135.465 0C136.163 0 136.784 0.134727 137.329 0.404181C137.878 0.673635 138.302 1.0453 138.6 1.51916C138.902 1.99303 139.054 2.51103 139.054 3.07317H137.706C137.706 2.45993 137.511 1.97909 137.12 1.63066C136.728 1.27758 136.177 1.10105 135.465 1.10105C134.804 1.10105 134.287 1.24739 133.914 1.54007C133.547 1.82811 133.363 2.22997 133.363 2.74564C133.363 3.15912 133.537 3.50987 133.887 3.79791C134.24 4.0813 134.838 4.34146 135.681 4.5784C136.528 4.81533 137.189 5.07782 137.664 5.36585C138.144 5.64924 138.497 5.98142 138.726 6.36237C138.958 6.74332 139.075 7.19164 139.075 7.70732C139.075 8.52962 138.753 9.18931 138.111 9.68641C137.469 10.1789 136.61 10.4251 135.534 10.4251C134.836 10.4251 134.184 10.2927 133.579 10.0279C132.974 9.75842 132.506 9.39141 132.176 8.92683C131.85 8.46225 131.687 7.93496 131.687 7.34495H133.035C133.035 7.95819 133.26 8.44367 133.712 8.80139C134.168 9.15447 134.776 9.33101 135.534 9.33101C136.242 9.33101 136.784 9.18699 137.161 8.89895C137.538 8.61092 137.727 8.21835 137.727 7.72125C137.727 7.22416 137.552 6.84088 137.203 6.57143C136.854 6.29733 136.221 6.02787 135.304 5.76307Z" fill="#2C6C50"/>
<path d="M145.694 9.19164H150.512V10.2857H144.347V0.139373H145.694V9.19164Z" fill="#2C6C50"/>
<path d="M157.139 1.24042H153.871V10.2857H152.537V1.24042H149.276V0.139373H157.139V1.24042Z" fill="#2C6C50"/>
<path d="M158.647 10.2857V0.139373H161.517C162.402 0.139373 163.184 0.334495 163.863 0.724739C164.543 1.11498 165.067 1.67015 165.434 2.39024C165.807 3.11034 165.995 3.93728 166 4.87108V5.51916C166 6.47619 165.814 7.31475 165.441 8.03484C165.074 8.75494 164.545 9.30778 163.856 9.69338C163.172 10.079 162.374 10.2764 161.461 10.2857H158.647ZM159.988 1.24042V9.19164H161.398C162.432 9.19164 163.235 8.87108 163.807 8.22997C164.385 7.58885 164.673 6.67596 164.673 5.49129V4.89895C164.673 3.74681 164.401 2.8525 163.856 2.21603C163.316 1.57491 162.548 1.24971 161.552 1.24042H159.988Z" fill="#2C6C50"/>
</svg>
