<svg width="84" height="84" viewBox="0 0 84 84" fill="none" xmlns="http://www.w3.org/2000/svg">
<path d="M80.8508 42.1492C80.9332 20.6925 63.6059 3.23158 42.1492 3.14919C20.6925 3.06681 3.23157 20.3941 3.14918 41.8508C3.06679 63.3076 20.3941 80.7684 41.8508 80.8508C63.3075 80.9332 80.7684 63.6059 80.8508 42.1492Z" stroke="#2C6C50" stroke-width="4" stroke-miterlimit="10"/>
<path d="M41.0059 22.2175L33.8373 22.198C33.8373 22.198 19.8768 24.8712 28.87 42.5346L23.4159 46.1665C23.4159 46.1665 17.0569 39.6657 19.7228 27.6594C21.3883 20.6742 27.2508 16.6534 31.5627 16.3428L39.8319 16.3746L41.0059 22.2175Z" fill="#2C6C50"/>
<path d="M42.5737 22.2228L49.7423 22.2571C49.7423 22.2571 63.6832 25.0355 54.5556 42.6304L59.9803 46.299C59.9803 46.299 66.3882 39.8471 63.8128 27.8212C62.2011 20.8238 56.3679 16.7516 52.0584 16.4166L43.7893 16.3848L42.5737 22.2228Z" fill="#2C6C50"/>
<path d="M40.402 23.3428H33.884V42.3733H40.402V23.3428Z" fill="#2C6C50"/>
<path d="M49.6296 23.3428H43.1116V42.3733H49.6296V23.3428Z" fill="#2C6C50"/>
<path d="M24.9767 54.9718L23.2842 51.2151L21.6846 54.9718H20.5474L22.9736 49.4346H23.5532L26.1237 54.9718H24.9718H24.9767Z" fill="#2C6C50"/>
<path d="M30.5942 54.9713L30.0292 53.6261H27.6764L27.1041 54.9713H25.9668L28.3539 49.4585H29.4251L31.7119 54.9713H30.5844H30.5942ZM28.8626 50.7596L28.0237 52.8068H29.6917L28.8626 50.7596Z" fill="#2C6C50"/>
<path d="M34.7226 50.3365V54.9835H33.6024V50.3365H31.7412V49.4731H36.5863V50.3365H34.7251H34.7226Z" fill="#2C6C50"/>
<path d="M42.9458 52.2275C42.9536 52.6102 42.8808 52.9903 42.7321 53.343C42.5833 53.6957 42.362 54.0131 42.0825 54.2746C41.5072 54.8068 40.7452 55.0907 39.962 55.0646C39.5745 55.0778 39.1883 55.0142 38.8256 54.8773C38.4629 54.7405 38.1309 54.5331 37.8488 54.2673C37.5771 54.0009 37.3612 53.6829 37.2138 53.332C37.0664 52.9812 36.9905 52.6044 36.9905 52.2238C36.9905 51.8433 37.0664 51.4665 37.2138 51.1156C37.3612 50.7648 37.5771 50.4468 37.8488 50.1804C38.4382 49.6758 39.1885 49.3984 39.9644 49.3984C40.7403 49.3984 41.4906 49.6758 42.08 50.1804C42.3587 50.4427 42.5795 50.7603 42.7286 51.1127C42.8777 51.4652 42.9517 51.8448 42.9458 52.2275ZM41.8257 52.2275C41.8175 51.8627 41.7018 51.5085 41.4932 51.2091C41.2846 50.9097 40.9923 50.6786 40.6529 50.5446C40.3135 50.4107 39.9421 50.3799 39.5853 50.456C39.2284 50.5322 38.902 50.7119 38.6469 50.9728C38.3917 51.2336 38.2193 51.564 38.151 51.9224C38.0828 52.2809 38.1219 52.6515 38.2633 52.9878C38.4048 53.3241 38.6423 53.6113 38.9462 53.8132C39.2502 54.0151 39.6069 54.1229 39.9718 54.123C40.2203 54.1286 40.4673 54.0831 40.6976 53.9892C40.9278 53.8954 41.1363 53.7553 41.3101 53.5776C41.4839 53.3999 41.6194 53.1883 41.7081 52.9561C41.7968 52.7238 41.8368 52.4758 41.8257 52.2275Z" fill="#2C6C50"/>
<path d="M48.3063 54.9717V51.127L48.2574 51.1759L46.631 53.2059L46.4622 53.0763L44.9385 51.1734L44.9067 51.1343V54.9791H43.8257V49.4761H44.804L46.5943 51.7091L48.3993 49.4761H49.3776V54.9742H48.3063V54.9717Z" fill="#2C6C50"/>
<path d="M50.5105 54.9717V49.4761H53.9126V50.3394H51.5989V51.7262H53.8245V52.5969H51.5989V54.1035H53.9859V54.9742H50.5105V54.9717Z" fill="#2C6C50"/>
<path d="M54.864 54.9717V49.4761H55.9695V54.9742H54.864V54.9717Z" fill="#2C6C50"/>
<path d="M61.1103 54.9713L60.5453 53.6261H58.1925L57.6202 54.9713H56.4829L58.8602 49.4585H59.9315L62.228 54.9713H61.1103ZM59.3763 50.7596L58.5374 52.8068H60.2054L59.3763 50.7596Z" fill="#2C6C50"/>
<path d="M23.8861 62.632L22.1936 58.8752L20.5965 62.632H19.4592L21.8854 57.0947H22.4651L25.0356 62.632H23.8861Z" fill="#2C6C50"/>
<path d="M29.5112 62.6319L28.9463 61.2867H26.5763L26.004 62.6319H24.8643L27.2611 57.1191H28.3324L30.6289 62.6319H29.5112ZM27.7772 58.4154L26.9383 60.4625H28.6063L27.7772 58.4154Z" fill="#2C6C50"/>
<path d="M33.6293 57.9967V62.6436H32.5092V57.9967H30.6479V57.1333H35.493V57.9967H33.6318H33.6293Z" fill="#2C6C50"/>
<path d="M41.8526 59.8828C41.8604 60.2655 41.7876 60.6455 41.6388 60.9982C41.4901 61.3509 41.2687 61.6684 40.9892 61.9299C40.4139 62.4621 39.652 62.746 38.8687 62.7199C38.4813 62.7331 38.0951 62.6695 37.7324 62.5326C37.3697 62.3958 37.0377 62.1884 36.7556 61.9226C36.4838 61.6561 36.2679 61.3382 36.1205 60.9873C35.9731 60.6364 35.8972 60.2597 35.8972 59.8791C35.8972 59.4985 35.9731 59.1218 36.1205 58.7709C36.2679 58.42 36.4838 58.1021 36.7556 57.8357C37.3449 57.331 38.0953 57.0537 38.8712 57.0537C39.647 57.0537 40.3974 57.331 40.9868 57.8357C41.2654 58.098 41.4863 58.4155 41.6354 58.768C41.7844 59.1205 41.8584 59.5001 41.8526 59.8828ZM40.7324 59.8828C40.7266 59.5174 40.613 59.1619 40.4058 58.8609C40.1986 58.5599 39.9071 58.3269 39.5679 58.1911C39.2286 58.0552 38.8568 58.0227 38.4992 58.0975C38.1415 58.1723 37.8139 58.3512 37.5576 58.6116C37.3012 58.872 37.1276 59.2023 37.0584 59.5611C36.9892 59.9199 37.0276 60.2911 37.1687 60.6282C37.3098 60.9652 37.5474 61.2531 37.8516 61.4555C38.1558 61.6579 38.5131 61.766 38.8785 61.766C39.126 61.7715 39.3719 61.7264 39.6013 61.6333C39.8307 61.5402 40.0386 61.4012 40.2122 61.2248C40.3859 61.0484 40.5216 60.8384 40.611 60.6076C40.7005 60.3768 40.7418 60.1301 40.7324 59.8828Z" fill="#2C6C50"/>
<path d="M45.2721 59.9313V62.6216H44.1861V59.9313L42.0828 57.1333H43.3815L44.7266 58.9701L46.0889 57.1333H47.3876L45.2721 59.9313Z" fill="#2C6C50"/>
<path d="M51.7066 58.7451C51.7066 59.7527 51.0364 60.3642 49.6277 60.3642H48.9502V62.629H47.8545V57.1333H49.7255C51.078 57.1333 51.7066 57.7374 51.7066 58.7451ZM50.5864 58.7279C50.5864 58.3342 50.3418 57.9942 49.7402 57.9942H48.9502V59.4764H49.7231C50.2709 59.4788 50.5864 59.222 50.5864 58.7304V58.7279Z" fill="#2C6C50"/>
<path d="M58.1267 59.8828C58.1346 60.2655 58.0617 60.6455 57.913 60.9982C57.7642 61.3509 57.5429 61.6684 57.2634 61.9299C56.6881 62.4621 55.9261 62.746 55.1429 62.7199C54.7555 62.7331 54.3692 62.6695 54.0065 62.5326C53.6438 62.3958 53.3119 62.1884 53.0297 61.9226C52.758 61.6561 52.5421 61.3382 52.3947 60.9873C52.2473 60.6364 52.1714 60.2597 52.1714 59.8791C52.1714 59.4985 52.2473 59.1218 52.3947 58.7709C52.5421 58.42 52.758 58.1021 53.0297 57.8357C53.6191 57.331 54.3694 57.0537 55.1453 57.0537C55.9212 57.0537 56.6715 57.331 57.2609 57.8357C57.5396 58.098 57.7604 58.4155 57.9095 58.768C58.0586 59.1205 58.1326 59.5001 58.1267 59.8828ZM57.0066 59.8828C56.9984 59.518 56.8827 59.1637 56.6741 58.8644C56.4655 58.565 56.1732 58.3339 55.8338 58.1999C55.4944 58.066 55.123 58.0351 54.7662 58.1113C54.4093 58.1874 54.0829 58.3672 53.8278 58.6281C53.5726 58.8889 53.4002 59.2193 53.3319 59.5777C53.2637 59.9361 53.3028 60.3067 53.4442 60.6431C53.5857 60.9794 53.8232 61.2665 54.1271 61.4685C54.4311 61.6704 54.7878 61.7782 55.1527 61.7782C55.4008 61.7832 55.6473 61.7372 55.8769 61.643C56.1066 61.5489 56.3145 61.4087 56.4878 61.2311C56.6611 61.0534 56.7961 60.8421 56.8845 60.6102C56.9729 60.3783 57.0128 60.1307 57.0017 59.8828H57.0066Z" fill="#2C6C50"/>
<path d="M58.5105 62.6314L60.3277 59.7772L58.5937 57.1333H62.9227V57.9477H60.4206L61.5897 59.7772L60.2446 61.7998H63.0181V62.629H58.5105V62.6314Z" fill="#2C6C50"/>
<path d="M37.7969 70.2916L36.1143 66.5349L34.5196 70.2916H33.3823L35.8085 64.7544H36.3882L38.9587 70.2916H37.8067H37.7969Z" fill="#2C6C50"/>
<path d="M41.9501 65.6549V70.3018H40.83V65.6549H38.9688V64.7915H43.8138V65.6549H41.9526H41.9501Z" fill="#2C6C50"/>
<path d="M43.8384 70.2916L46.2646 64.7544H46.8442L49.4147 70.2916H43.8384ZM46.5703 66.5349L45.3474 69.4209H47.8788L46.5703 66.5349Z" fill="#2C6C50"/>
</svg>
