<svg width="16" height="18" viewBox="0 0 13 15" fill="none" xmlns="http://www.w3.org/2000/svg">
<path d="M12.0334 3.21656L8.90844 0.0915527C8.84984 0.032959 8.77051 0 8.68748 0H2.12498C1.4356 0 0.875 0.560596 0.875 1.25001V13.75C0.875 14.4394 1.4356 15 2.12501 15H10.875C11.5644 15 12.125 14.4394 12.125 13.75V3.43749C12.125 3.35449 12.092 3.27516 12.0334 3.21656ZM8.99999 1.0669L11.0581 3.12501H9.62498C9.28045 3.12501 8.99999 2.84455 8.99999 2.50002V1.0669ZM11.5 13.75C11.5 14.0945 11.2196 14.375 10.875 14.375H2.12501C1.78048 14.375 1.50002 14.0945 1.50002 13.75V1.25001C1.50002 0.905478 1.78048 0.62502 2.12501 0.62502H8.375V2.50002C8.375 3.1894 8.9356 3.75 9.62501 3.75H11.5V13.75Z" fill="white"/>
<path d="M8.09331 9.1739C7.804 8.94623 7.52905 8.71218 7.34595 8.52907C7.10791 8.29103 6.8958 8.06032 6.71149 7.8406C6.99898 6.95223 7.12502 6.49417 7.12502 6.25001C7.12502 5.21272 6.75025 5 6.18752 5C5.75996 5 5.25002 5.22216 5.25002 6.27992C5.25002 6.74624 5.50546 7.31234 6.01174 7.97029C5.88784 8.3484 5.74227 8.78451 5.5787 9.27614C5.49995 9.51204 5.41452 9.73054 5.32417 9.93257C5.25063 9.96523 5.17921 9.99849 5.11024 10.033C4.86184 10.1572 4.62594 10.2689 4.40712 10.3726C3.40918 10.845 2.75 11.1576 2.75 11.7746C2.75 12.2226 3.23677 12.5 3.6875 12.5C4.26854 12.5 5.14593 11.7239 5.7868 10.4166C6.45207 10.1541 7.27912 9.9597 7.93188 9.83794C8.45495 10.2402 9.03266 10.625 9.3125 10.625C10.0873 10.625 10.25 10.177 10.25 9.80132C10.25 9.06248 9.40587 9.06248 8.99999 9.06248C8.87396 9.06251 8.53584 9.09975 8.09331 9.1739ZM3.6875 11.875C3.50896 11.875 3.38811 11.7908 3.37499 11.7746C3.37499 11.553 4.03569 11.2399 4.67475 10.9372C4.71532 10.918 4.75654 10.8987 4.79835 10.8789C4.32898 11.5595 3.8648 11.875 3.6875 11.875ZM5.87501 6.27992C5.87501 5.62502 6.07827 5.62502 6.18752 5.62502C6.40848 5.62502 6.50003 5.62502 6.50003 6.25001C6.50003 6.38185 6.41214 6.71144 6.2513 7.22598C6.00591 6.84816 5.87501 6.52437 5.87501 6.27992ZM6.11457 9.63869C6.13411 9.58437 6.15304 9.52944 6.17135 9.4739C6.2873 9.126 6.39169 8.81349 6.48477 8.53212C6.61446 8.67494 6.75424 8.82113 6.90409 8.97096C6.96269 9.02955 7.10794 9.16139 7.30145 9.32647C6.91625 9.41041 6.50642 9.51447 6.11457 9.63869ZM9.62501 9.80135C9.62501 9.94174 9.62501 10 9.33509 10.0019C9.24995 9.98354 9.05311 9.86759 8.81018 9.70218C8.89836 9.69242 8.96337 9.68753 8.99999 9.68753C9.46174 9.68753 9.59267 9.73268 9.62501 9.80135Z" fill="white"/>
</svg>
