<svg width="100" height="100" viewBox="0 0 100 100" fill="none" xmlns="http://www.w3.org/2000/svg">
<circle cx="50" cy="50" r="50" fill="#18AC0B"/>
<path fill-rule="evenodd" clip-rule="evenodd" d="M71.6176 46.9781H71.6249C72.9795 46.9781 74.0808 48.0745 74.0833 49.429C74.1029 55.9952 71.5635 62.178 66.932 66.834C62.3029 71.4901 56.1374 74.064 49.5712 74.0837H49.4999C42.9583 74.0837 36.8051 71.5467 32.1662 66.9324C27.5102 62.3033 24.9363 56.1378 24.9166 49.5716C24.897 43.003 27.4364 36.8227 32.0679 32.1666C36.6969 27.5105 42.8624 24.9367 49.4287 24.917C51.383 24.9465 53.3743 25.1432 55.2819 25.6004C56.5996 25.92 57.4133 27.2475 57.0937 28.5676C56.7766 29.8853 55.4417 30.6965 54.129 30.3819C52.6024 30.0131 50.9823 29.8582 49.4434 29.8337C44.1899 29.8484 39.2561 31.9085 35.5538 35.6329C31.8491 39.3572 29.8185 44.3034 29.8333 49.5569C29.848 54.8103 31.9081 59.7417 35.6325 63.4465C39.3446 67.1364 44.2662 69.167 49.4999 69.167H49.5565C54.8099 69.1522 59.7438 67.0922 63.4461 63.3678C67.1508 59.641 69.1814 54.6972 69.1666 49.4438C69.1642 48.0868 70.2606 46.9805 71.6176 46.9781ZM40.3869 47.762C41.3481 46.8008 42.9018 46.8008 43.863 47.762L49.3795 53.2785L64.8596 35.5883C65.7545 34.573 67.3057 34.4649 68.3284 35.3597C69.3486 36.2521 69.4518 37.8058 68.557 38.8284L51.3486 58.4951C50.9012 59.0064 50.2621 59.3088 49.5811 59.3334H49.5C48.8485 59.3334 48.2241 59.0753 47.7619 58.6131L40.3869 51.2381C39.4257 50.2769 39.4257 48.7232 40.3869 47.762Z" fill="#231F20"/>
<mask id="mask0" mask-type="alpha" maskUnits="userSpaceOnUse" x="24" y="24" width="51" height="51">
<path fill-rule="evenodd" clip-rule="evenodd" d="M71.6176 46.9781H71.6249C72.9795 46.9781 74.0808 48.0745 74.0833 49.429C74.1029 55.9952 71.5635 62.178 66.932 66.834C62.3029 71.4901 56.1374 74.064 49.5712 74.0837H49.4999C42.9583 74.0837 36.8051 71.5467 32.1662 66.9324C27.5102 62.3033 24.9363 56.1378 24.9166 49.5716C24.897 43.003 27.4364 36.8227 32.0679 32.1666C36.6969 27.5105 42.8624 24.9367 49.4287 24.917C51.383 24.9465 53.3743 25.1432 55.2819 25.6004C56.5996 25.92 57.4133 27.2475 57.0937 28.5676C56.7766 29.8853 55.4417 30.6965 54.129 30.3819C52.6024 30.0131 50.9823 29.8582 49.4434 29.8337C44.1899 29.8484 39.2561 31.9085 35.5538 35.6329C31.8491 39.3572 29.8185 44.3034 29.8333 49.5569C29.848 54.8103 31.9081 59.7417 35.6325 63.4465C39.3446 67.1364 44.2662 69.167 49.4999 69.167H49.5565C54.8099 69.1522 59.7438 67.0922 63.4461 63.3678C67.1508 59.641 69.1814 54.6972 69.1666 49.4438C69.1642 48.0868 70.2606 46.9805 71.6176 46.9781ZM40.3869 47.762C41.3481 46.8008 42.9018 46.8008 43.863 47.762L49.3795 53.2785L64.8596 35.5883C65.7545 34.573 67.3057 34.4649 68.3284 35.3597C69.3486 36.2521 69.4518 37.8058 68.557 38.8284L51.3486 58.4951C50.9012 59.0064 50.2621 59.3088 49.5811 59.3334H49.5C48.8485 59.3334 48.2241 59.0753 47.7619 58.6131L40.3869 51.2381C39.4257 50.2769 39.4257 48.7232 40.3869 47.762Z" fill="white"/>
</mask>
<g mask="url(#mask0)">
<rect x="20" y="20" width="59" height="59" fill="white"/>
</g>
</svg>
